<svg width="1820" height="1080" viewBox="0 0 1820 1080" fill="none" xmlns="http://www.w3.org/2000/svg">
<g clip-path="url(#clip0_2234_8802)">
<g opacity="0.2" clip-path="url(#clip1_2234_8802)">
<path d="M-69.9025 896C-148.456 896 -212 959.544 -212 1038.1C-212 1116.46 -148.456 1180.19 -69.9025 1180.19C8.45575 1180.19 72.1949 1116.65 72.1949 1038.1C72 959.544 8.45575 896 -69.9025 896ZM-69.9025 1171.03C-143.388 1171.03 -202.839 1111.58 -202.839 1038.1C-202.839 964.612 -143.388 905.161 -69.9025 905.161C3.58273 905.161 63.0337 964.612 63.0337 1038.1C63.0337 1111.39 3.3878 1171.03 -69.9025 1171.03Z" fill="white"/>
<path d="M-69.9012 926.603C-131.301 926.603 -181.201 976.502 -181.201 1037.9C-181.201 1099.3 -131.301 1149.2 -69.9012 1149.2C-8.50111 1149.2 41.3987 1099.5 41.3987 1038.1C41.3987 976.502 -8.50111 926.603 -69.9012 926.603ZM-69.9012 1132.24C-121.945 1132.24 -164.243 1089.95 -164.243 1037.9C-164.243 985.859 -121.945 943.561 -69.9012 943.561C-17.8573 943.561 24.4405 985.859 24.4405 1037.9C24.4405 1089.95 -17.8573 1132.24 -69.9012 1132.24Z" fill="white"/>
</g>
<g opacity="0.8" clip-path="url(#clip2_2234_8802)">
<path d="M1668.34 789.264C1668.34 790.784 1667.19 791.923 1665.67 791.923C1664.14 791.923 1663 790.784 1663 789.264C1663 787.745 1664.14 786.605 1665.67 786.605C1667.19 786.605 1668.34 787.872 1668.34 789.264Z" fill="white"/>
<path d="M1691.08 789.264C1691.08 790.784 1689.93 791.923 1688.41 791.923C1686.88 791.923 1685.74 790.784 1685.74 789.264C1685.74 787.745 1686.88 786.605 1688.41 786.605C1689.8 786.605 1691.08 787.872 1691.08 789.264Z" fill="white"/>
<path d="M1713.69 789.264C1713.69 790.784 1712.54 791.923 1711.02 791.923C1709.5 791.923 1708.35 790.784 1708.35 789.264C1708.35 787.745 1709.5 786.605 1711.02 786.605C1712.54 786.605 1713.69 787.872 1713.69 789.264Z" fill="white"/>
<path d="M1736.43 789.264C1736.43 790.784 1735.28 791.923 1733.76 791.923C1732.24 791.923 1731.09 790.784 1731.09 789.264C1731.09 787.745 1732.24 786.605 1733.76 786.605C1735.28 786.605 1736.43 787.872 1736.43 789.264Z" fill="white"/>
<path d="M1759.17 789.264C1759.17 790.784 1758.02 791.923 1756.5 791.923C1754.98 791.923 1753.83 790.784 1753.83 789.264C1753.83 787.745 1754.98 786.605 1756.5 786.605C1757.9 786.605 1759.17 787.872 1759.17 789.264Z" fill="white"/>
<path d="M1781.91 789.264C1781.91 790.784 1780.76 791.923 1779.24 791.923C1777.72 791.923 1776.57 790.784 1776.57 789.264C1776.57 787.745 1777.72 786.605 1779.24 786.605C1780.76 786.605 1781.91 787.872 1781.91 789.264Z" fill="white"/>
<path d="M1804.52 789.264C1804.52 790.784 1803.38 791.923 1801.85 791.923C1800.33 791.923 1799.18 790.784 1799.18 789.264C1799.18 787.745 1800.33 786.605 1801.85 786.605C1803.38 786.605 1804.52 787.872 1804.52 789.264Z" fill="white"/>
<path d="M1668.34 808.131C1668.34 809.65 1667.19 810.79 1665.67 810.79C1664.14 810.79 1663 809.65 1663 808.131C1663 806.611 1664.14 805.472 1665.67 805.472C1667.19 805.472 1668.34 806.611 1668.34 808.131Z" fill="white"/>
<path d="M1691.08 808.131C1691.08 809.65 1689.93 810.79 1688.41 810.79C1686.88 810.79 1685.74 809.65 1685.74 808.131C1685.74 806.611 1686.88 805.472 1688.41 805.472C1689.8 805.472 1691.08 806.611 1691.08 808.131Z" fill="white"/>
<path d="M1713.69 808.131C1713.69 809.65 1712.54 810.79 1711.02 810.79C1709.5 810.79 1708.35 809.65 1708.35 808.131C1708.35 806.611 1709.5 805.472 1711.02 805.472C1712.54 805.472 1713.69 806.611 1713.69 808.131Z" fill="white"/>
<path d="M1736.43 808.131C1736.43 809.65 1735.28 810.79 1733.76 810.79C1732.24 810.79 1731.09 809.65 1731.09 808.131C1731.09 806.611 1732.24 805.472 1733.76 805.472C1735.28 805.472 1736.43 806.611 1736.43 808.131Z" fill="white"/>
<path d="M1759.17 808.131C1759.17 809.65 1758.02 810.79 1756.5 810.79C1754.98 810.79 1753.83 809.65 1753.83 808.131C1753.83 806.611 1754.98 805.472 1756.5 805.472C1757.9 805.472 1759.17 806.611 1759.17 808.131Z" fill="white"/>
<path d="M1781.91 808.131C1781.91 809.65 1780.76 810.79 1779.24 810.79C1777.72 810.79 1776.57 809.65 1776.57 808.131C1776.57 806.611 1777.72 805.472 1779.24 805.472C1780.76 805.472 1781.91 806.611 1781.91 808.131Z" fill="white"/>
<path d="M1804.52 808.131C1804.52 809.65 1803.38 810.79 1801.85 810.79C1800.33 810.79 1799.18 809.65 1799.18 808.131C1799.18 806.611 1800.33 805.472 1801.85 805.472C1803.38 805.472 1804.52 806.611 1804.52 808.131Z" fill="white"/>
<path d="M1668.34 751.659C1668.34 753.178 1667.19 754.318 1665.67 754.318C1664.14 754.318 1663 753.178 1663 751.659C1663 750.14 1664.14 749 1665.67 749C1667.19 749 1668.34 750.14 1668.34 751.659Z" fill="white"/>
<path d="M1691.08 751.659C1691.08 753.178 1689.93 754.318 1688.41 754.318C1686.88 754.318 1685.74 753.178 1685.74 751.659C1685.74 750.14 1686.88 749 1688.41 749C1689.8 749 1691.08 750.14 1691.08 751.659Z" fill="white"/>
<path d="M1713.69 751.659C1713.69 753.178 1712.54 754.318 1711.02 754.318C1709.5 754.318 1708.35 753.178 1708.35 751.659C1708.35 750.14 1709.62 749 1711.02 749C1712.54 749 1713.69 750.14 1713.69 751.659Z" fill="white"/>
<path d="M1736.43 751.659C1736.43 753.178 1735.28 754.318 1733.76 754.318C1732.24 754.318 1731.09 753.178 1731.09 751.659C1731.09 750.14 1732.36 749 1733.76 749C1735.16 749 1736.43 750.14 1736.43 751.659Z" fill="white"/>
<path d="M1759.17 751.659C1759.17 753.178 1758.02 754.318 1756.5 754.318C1754.98 754.318 1753.83 753.178 1753.83 751.659C1753.83 750.14 1754.98 749 1756.5 749C1757.9 749 1759.17 750.14 1759.17 751.659Z" fill="white"/>
<path d="M1781.91 751.659C1781.91 753.178 1780.76 754.318 1779.24 754.318C1777.72 754.318 1776.57 753.178 1776.57 751.659C1776.57 750.14 1777.72 749 1779.24 749C1780.76 749 1781.91 750.14 1781.91 751.659Z" fill="white"/>
<path d="M1804.52 751.659C1804.52 753.178 1803.38 754.318 1801.85 754.318C1800.33 754.318 1799.18 753.178 1799.18 751.659C1799.18 750.14 1800.33 749 1801.85 749C1803.38 749 1804.52 750.14 1804.52 751.659Z" fill="white"/>
<path d="M1668.34 770.525C1668.34 772.045 1667.19 773.184 1665.67 773.184C1664.14 773.184 1663 771.918 1663 770.525C1663 769.006 1664.14 767.866 1665.67 767.866C1667.19 767.866 1668.34 769.006 1668.34 770.525Z" fill="white"/>
<path d="M1691.08 770.525C1691.08 772.045 1689.93 773.184 1688.41 773.184C1686.88 773.184 1685.74 772.045 1685.74 770.525C1685.74 769.006 1686.88 767.866 1688.41 767.866C1689.8 767.866 1691.08 769.006 1691.08 770.525Z" fill="white"/>
<path d="M1713.69 770.525C1713.69 772.045 1712.54 773.184 1711.02 773.184C1709.5 773.184 1708.35 772.045 1708.35 770.525C1708.35 769.006 1709.5 767.866 1711.02 767.866C1712.54 767.866 1713.69 769.006 1713.69 770.525Z" fill="white"/>
<path d="M1736.43 770.525C1736.43 772.045 1735.28 773.184 1733.76 773.184C1732.24 773.184 1731.09 772.045 1731.09 770.525C1731.09 769.006 1732.24 767.866 1733.76 767.866C1735.28 767.866 1736.43 769.006 1736.43 770.525Z" fill="white"/>
<path d="M1759.17 770.525C1759.17 772.045 1758.02 773.184 1756.5 773.184C1754.98 773.184 1753.83 772.045 1753.83 770.525C1753.83 769.006 1754.98 767.866 1756.5 767.866C1757.9 767.866 1759.17 769.006 1759.17 770.525Z" fill="white"/>
<path d="M1781.91 770.525C1781.91 772.045 1780.76 773.184 1779.24 773.184C1777.72 773.184 1776.57 772.045 1776.57 770.525C1776.57 769.006 1777.72 767.866 1779.24 767.866C1780.76 767.866 1781.91 769.006 1781.91 770.525Z" fill="white"/>
<path d="M1804.52 770.525C1804.52 772.045 1803.38 773.184 1801.85 773.184C1800.33 773.184 1799.18 772.045 1799.18 770.525C1799.18 769.006 1800.33 767.866 1801.85 767.866C1803.38 767.866 1804.52 769.006 1804.52 770.525Z" fill="white"/>
<path d="M1668.34 826.87C1668.34 828.389 1667.19 829.529 1665.67 829.529C1664.14 829.529 1663 828.389 1663 826.87C1663 825.35 1664.14 824.211 1665.67 824.211C1667.19 824.211 1668.34 825.477 1668.34 826.87Z" fill="white"/>
<path d="M1691.08 826.87C1691.08 828.389 1689.93 829.529 1688.41 829.529C1686.88 829.529 1685.74 828.389 1685.74 826.87C1685.74 825.35 1686.88 824.211 1688.41 824.211C1689.8 824.211 1691.08 825.477 1691.08 826.87Z" fill="white"/>
<path d="M1713.69 826.87C1713.69 828.389 1712.54 829.529 1711.02 829.529C1709.5 829.529 1708.35 828.389 1708.35 826.87C1708.35 825.35 1709.5 824.211 1711.02 824.211C1712.54 824.211 1713.69 825.477 1713.69 826.87Z" fill="white"/>
<path d="M1736.43 826.87C1736.43 828.389 1735.28 829.529 1733.76 829.529C1732.24 829.529 1731.09 828.389 1731.09 826.87C1731.09 825.35 1732.24 824.211 1733.76 824.211C1735.28 824.211 1736.43 825.477 1736.43 826.87Z" fill="white"/>
<path d="M1759.17 826.87C1759.17 828.389 1758.02 829.529 1756.5 829.529C1754.98 829.529 1753.83 828.389 1753.83 826.87C1753.83 825.35 1754.98 824.211 1756.5 824.211C1757.9 824.211 1759.17 825.477 1759.17 826.87Z" fill="white"/>
<path d="M1781.91 826.87C1781.91 828.389 1780.76 829.529 1779.24 829.529C1777.72 829.529 1776.57 828.389 1776.57 826.87C1776.57 825.35 1777.72 824.211 1779.24 824.211C1780.76 824.211 1781.91 825.477 1781.91 826.87Z" fill="white"/>
<path d="M1804.52 826.87C1804.52 828.389 1803.38 829.529 1801.85 829.529C1800.33 829.529 1799.18 828.389 1799.18 826.87C1799.18 825.35 1800.33 824.211 1801.85 824.211C1803.38 824.211 1804.52 825.477 1804.52 826.87Z" fill="white"/>
<path d="M1668.34 845.736C1668.34 847.256 1667.19 848.395 1665.67 848.395C1664.14 848.395 1663 847.256 1663 845.736C1663 844.217 1664.14 843.077 1665.67 843.077C1667.19 843.077 1668.34 844.217 1668.34 845.736Z" fill="white"/>
<path d="M1691.08 845.736C1691.08 847.256 1689.93 848.395 1688.41 848.395C1686.88 848.395 1685.74 847.256 1685.74 845.736C1685.74 844.217 1686.88 843.077 1688.41 843.077C1689.8 843.077 1691.08 844.217 1691.08 845.736Z" fill="white"/>
<path d="M1713.69 845.736C1713.69 847.256 1712.54 848.395 1711.02 848.395C1709.5 848.395 1708.35 847.256 1708.35 845.736C1708.35 844.217 1709.5 843.077 1711.02 843.077C1712.54 843.077 1713.69 844.217 1713.69 845.736Z" fill="white"/>
<path d="M1733.76 848.395C1735.23 848.395 1736.43 847.205 1736.43 845.736C1736.43 844.268 1735.23 843.077 1733.76 843.077C1732.29 843.077 1731.09 844.268 1731.09 845.736C1731.09 847.205 1732.29 848.395 1733.76 848.395Z" fill="white"/>
<path d="M1759.17 845.736C1759.17 847.256 1758.02 848.395 1756.5 848.395C1754.98 848.395 1753.83 847.256 1753.83 845.736C1753.83 844.217 1754.98 843.077 1756.5 843.077C1757.9 843.077 1759.17 844.217 1759.17 845.736Z" fill="white"/>
<path d="M1781.91 845.736C1781.91 847.256 1780.76 848.395 1779.24 848.395C1777.72 848.395 1776.57 847.256 1776.57 845.736C1776.57 844.217 1777.72 843.077 1779.24 843.077C1780.76 843.077 1781.91 844.217 1781.91 845.736Z" fill="white"/>
<path d="M1804.52 845.736C1804.52 847.256 1803.38 848.395 1801.85 848.395C1800.33 848.395 1799.18 847.256 1799.18 845.736C1799.18 844.217 1800.33 843.077 1801.85 843.077C1803.38 843.077 1804.52 844.217 1804.52 845.736Z" fill="white"/>
<path d="M1668.34 864.601C1668.34 866.121 1667.19 867.26 1665.67 867.26C1664.14 867.26 1663 866.121 1663 864.601C1663 863.082 1664.14 861.942 1665.67 861.942C1667.19 861.942 1668.34 863.082 1668.34 864.601Z" fill="white"/>
<path d="M1691.08 864.601C1691.08 866.121 1689.93 867.26 1688.41 867.26C1686.88 867.26 1685.74 866.121 1685.74 864.601C1685.74 863.082 1686.88 861.942 1688.41 861.942C1689.8 861.942 1691.08 863.082 1691.08 864.601Z" fill="white"/>
<path d="M1713.69 864.601C1713.69 866.121 1712.54 867.26 1711.02 867.26C1709.5 867.26 1708.35 866.121 1708.35 864.601C1708.35 863.082 1709.5 861.942 1711.02 861.942C1712.54 861.942 1713.69 863.082 1713.69 864.601Z" fill="white"/>
<path d="M1736.43 864.601C1736.43 866.121 1735.28 867.26 1733.76 867.26C1732.24 867.26 1731.09 866.121 1731.09 864.601C1731.09 863.082 1732.24 861.942 1733.76 861.942C1735.28 861.942 1736.43 863.082 1736.43 864.601Z" fill="white"/>
<path d="M1759.17 864.601C1759.17 866.121 1758.02 867.26 1756.5 867.26C1754.98 867.26 1753.83 866.121 1753.83 864.601C1753.83 863.082 1754.98 861.942 1756.5 861.942C1757.9 861.942 1759.17 863.082 1759.17 864.601Z" fill="white"/>
<path d="M1781.91 864.601C1781.91 866.121 1780.76 867.26 1779.24 867.26C1777.72 867.26 1776.57 866.121 1776.57 864.601C1776.57 863.082 1777.72 861.942 1779.24 861.942C1780.76 861.942 1781.91 863.082 1781.91 864.601Z" fill="white"/>
<path d="M1804.52 864.601C1804.52 866.121 1803.38 867.26 1801.85 867.26C1800.33 867.26 1799.18 866.121 1799.18 864.601C1799.18 863.082 1800.33 861.942 1801.85 861.942C1803.38 861.942 1804.52 863.082 1804.52 864.601Z" fill="white"/>
<path d="M1668.34 883.341C1668.34 884.86 1667.19 886 1665.67 886C1664.14 886 1663 884.86 1663 883.341C1663 881.821 1664.14 880.682 1665.67 880.682C1667.19 880.682 1668.34 881.948 1668.34 883.341Z" fill="white"/>
<path d="M1691.08 883.341C1691.08 884.86 1689.93 886 1688.41 886C1686.88 886 1685.74 884.86 1685.74 883.341C1685.74 881.821 1686.88 880.682 1688.41 880.682C1689.8 880.682 1691.08 881.948 1691.08 883.341Z" fill="white"/>
<path d="M1713.69 883.341C1713.69 884.86 1712.54 886 1711.02 886C1709.5 886 1708.35 884.86 1708.35 883.341C1708.35 881.821 1709.5 880.682 1711.02 880.682C1712.54 880.682 1713.69 881.948 1713.69 883.341Z" fill="white"/>
<path d="M1736.43 883.341C1736.43 884.86 1735.28 886 1733.76 886C1732.24 886 1731.09 884.86 1731.09 883.341C1731.09 881.821 1732.24 880.682 1733.76 880.682C1735.28 880.682 1736.43 881.948 1736.43 883.341Z" fill="white"/>
<path d="M1759.17 883.341C1759.17 884.86 1758.02 886 1756.5 886C1754.98 886 1753.83 884.86 1753.83 883.341C1753.83 881.821 1754.98 880.682 1756.5 880.682C1757.9 880.682 1759.17 881.948 1759.17 883.341Z" fill="white"/>
<path d="M1781.91 883.341C1781.91 884.86 1780.76 886 1779.24 886C1777.72 886 1776.57 884.86 1776.57 883.341C1776.57 881.821 1777.72 880.682 1779.24 880.682C1780.76 880.682 1781.91 881.948 1781.91 883.341Z" fill="white"/>
<path d="M1804.52 883.341C1804.52 884.86 1803.38 886 1801.85 886C1800.33 886 1799.18 884.86 1799.18 883.341C1799.18 881.821 1800.33 880.682 1801.85 880.682C1803.38 880.682 1804.52 881.948 1804.52 883.341Z" fill="white"/>
</g>
<g opacity="0.3">
<path d="M1661.81 75.2212L1671.47 84.8799L1645.78 110.563L1620.1 84.8799L1629.68 75.2943L1645.71 91.319L1661.81 75.2212Z" fill="white"/>
<path d="M1661.81 40.5386L1671.39 50.1241L1645.71 75.8075L1620.1 50.1973L1629.76 40.5386L1645.78 56.5632L1661.81 40.5386Z" fill="white"/>
<path d="M1661.73 5.78165L1671.39 15.4404L1645.78 41.0506L1620.1 15.3672L1629.68 5.78165L1645.71 21.8063L1661.73 5.78165Z" fill="white"/>
<path d="M1661.81 -28.9761L1671.46 -19.3174L1645.78 6.36601L1620.1 -19.3174L1629.76 -28.9761L1645.78 -12.9514L1661.81 -28.9761Z" fill="white"/>
</g>
<path opacity="0.3" d="M694 808.553C680.071 822.482 657.377 822.482 643.447 808.553C629.518 794.623 629.518 771.929 643.447 758L694 808.553Z" fill="white"/>
<g opacity="0.3">
<path d="M748.486 529.89C759.205 529.89 767.937 521.165 767.937 510.453C767.937 499.742 759.205 491.017 748.486 491.017L748.486 529.89Z" fill="white"/>
<path d="M718.141 529.89C728.861 529.89 737.592 521.165 737.592 510.453C737.592 499.742 728.861 491.017 718.141 491.017L718.141 529.89Z" fill="white"/>
<path d="M687.796 529.89C698.515 529.89 707.247 521.165 707.247 510.453C707.247 499.742 698.515 491.017 687.796 491.017V529.89Z" fill="white"/>
</g>
<g opacity="0.3">
<path d="M46.3007 144.921L46.3007 133L77.9995 133L77.9995 164.699L66.1689 164.699L66.1689 144.921L46.3007 144.921Z" fill="white"/>
<path d="M24.8984 166.325L24.8984 154.494L56.5972 154.494L56.5972 186.103L44.6763 186.103L44.6763 166.325L24.8984 166.325Z" fill="white"/>
<path d="M3.49457 187.819L3.49457 175.898L35.103 175.898L35.103 207.597L23.2724 207.597L23.2724 187.819L3.49457 187.819Z" fill="white"/>
<path d="M-17.9995 209.222L-17.9996 197.301L13.6992 197.301L13.6992 229L1.77831 229L1.77831 209.222L-17.9995 209.222Z" fill="white"/>
</g>
</g>
<defs>
<clipPath id="clip0_2234_8802">
<rect width="1920" height="1080" fill="white" transform="translate(-100)"/>
</clipPath>
<clipPath id="clip1_2234_8802">
<rect width="284" height="284" fill="white" transform="translate(-212 896)"/>
</clipPath>
<clipPath id="clip2_2234_8802">
<rect width="187" height="137" fill="white" transform="translate(1663 749)"/>
</clipPath>
</defs>
</svg>
